# xmcd
#
# Track frame offsets:
#	182
#	11820
#	24897
#	39577
#	50962
#	62315
#	75752
#	88020
#	101342
#	112850
#	125175
#	140332
#	151807
#	163625
#	174382
#	184365
#
# Disc length: 2623 seconds
#
# Revision: 0
# Processed by: cddbd v1.4PL0 Copyright (c) Steve Scherf et al.
# Submitted via: dBpowerAMP V4.0
#
DISCID=c10a3d10
DTITLE=Merle Haggard - Country Boy
DYEAR=1900
DGENRE=Country
TTITLE0=Carolyn
TTITLE1=Everybody's Had The Blues 
TTITLE2=Green, Green Grass Of Home
TTITLE3=You Still Have A Place In My Heart
TTITLE4=The Sidewalks Of Chicago
TTITLE5=The Son Of Hickory Holler's Tramp
TTITLE6=Goodbye Comes Hard For Me
TTITLE7=Mom And Dad's Waltz
TTITLE8=Life's Like Poetry
TTITLE9=Things Aren't Funny Anymore
TTITLE10=It's Not Love  (But It's Not Bad)
TTITLE11=I'd Trade All Of My Tomorrows
TTITLE12=She Thinks I Still Care
TTITLE13=Don't Give Up On Me
TTITLE14=The Man Who Picked The Wildwood Flower
TTITLE15=Folsom Prison Blues
EXTD=
EXTT0=
EXTT1=
EXTT2=
EXTT3=
EXTT4=
EXTT5=
EXTT6=
EXTT7=
EXTT8=
EXTT9=
EXTT10=
EXTT11=
EXTT12=
EXTT13=
EXTT14=
EXTT15=
PLAYORDER=
